<svg id="Ebene_1" data-name="Ebene 1" xmlns="http://www.w3.org/2000/svg" viewBox="0 0 178 48"><defs><style>.cls-1{fill:#333;}.cls-2{fill:#008ece;}.cls-3{fill:#fff;}</style></defs><title>anwendung_logo_workbench_0</title><path class="cls-1" d="M120.84,1.05H105.07V4.54l6.77,1-10,27.77L91.11,5.16l5.73-.62V1.05H76.18V4.54L80.37,5,97,47.45h3.49L115.68,5.37l5.16-.83ZM60.43,18.35a17.36,17.36,0,0,1-5.52-2.93A5.75,5.75,0,0,1,53,10.82a6.12,6.12,0,0,1,2.37-5.17,9.36,9.36,0,0,1,5.86-1.81,12.87,12.87,0,0,1,2.72.28A16.25,16.25,0,0,1,66.64,5L68,13.19h5.72l.49-9.56A19.44,19.44,0,0,0,68.35.94,26.82,26.82,0,0,0,61.12,0,23,23,0,0,0,54,1a16.57,16.57,0,0,0-5.3,2.79A12,12,0,0,0,45.39,8a12.42,12.42,0,0,0-1.15,5.38,12.48,12.48,0,0,0,3.45,8.89,24.27,24.27,0,0,0,9.67,5.9l3.42,1.26a17.26,17.26,0,0,1,5.47,2.93A5.32,5.32,0,0,1,68,36.56a6.61,6.61,0,0,1-2.44,5.37,10.43,10.43,0,0,1-6.84,2A13.83,13.83,0,0,1,55,43.5a18.58,18.58,0,0,1-3.28-1.22l-1.39-8.37H44.52L44.1,44.17a23.35,23.35,0,0,0,6.77,2.68,33.37,33.37,0,0,0,7.88.95,24.84,24.84,0,0,0,7.57-1.09,17.49,17.49,0,0,0,5.79-3,14.17,14.17,0,0,0,3.74-4.54,12.21,12.21,0,0,0,1.32-5.65,12,12,0,0,0-.66-3.94,11.65,11.65,0,0,0-2.16-3.7,17.09,17.09,0,0,0-4-3.35,31.73,31.73,0,0,0-6.28-2.89ZM44.66,1.05H28.89V4.54l6.76,1-10,27.77L14.93,5.16l5.72-.62V1.05H0V4.54L4.19,5,20.86,47.45h3.49L39.49,5.37l5.17-.83Z"/><path class="cls-1" d="M162.89,24.07c0-.32,0-.67,0-1V20.54a2.62,2.62,0,0,0-.5-1.77,1.86,1.86,0,0,0-1.46-.57,2.35,2.35,0,0,0-.62.07,1.83,1.83,0,0,0-.53.21,3.15,3.15,0,0,0-.49.37,5.28,5.28,0,0,0-.53.53l-.09-1-.2-.14-2.4.87v.5l.89.12c0,.13,0,.25,0,.36s0,.23,0,.35,0,.25,0,.38V23c0,.37,0,.72,0,1.06l-.81.16v.58h3.4v-.58l-.75-.16c0-.33,0-.68,0-1.05V20.07a3.92,3.92,0,0,1,.75-.57,1.52,1.52,0,0,1,.75-.21.63.63,0,0,1,.63.35,3,3,0,0,1,.16,1.11V23c0,.37,0,.72,0,1.05l-.81.16v.58h3.4v-.58Zm-10.4-5.73-.2-.14-2.4.87v.5l.89.12c0,.13,0,.25,0,.36s0,.23,0,.35,0,.25,0,.38V23c0,.37,0,.72,0,1.05l-.81.16v.58h3.65v-.58l-1-.2c0-.33,0-.67,0-1V20.61A2.58,2.58,0,0,1,153,20a3.67,3.67,0,0,1,.44-.51l0,0a1.42,1.42,0,0,0,1,.55.88.88,0,0,0,.68-.27,1,1,0,0,0,.25-.71,1,1,0,0,0-.4-.66,1.23,1.23,0,0,0-.58-.17,1.54,1.54,0,0,0-.94.38,3.33,3.33,0,0,0-.85,1.06Zm-3.36,3.35a2.51,2.51,0,0,0,.08-.69,3.14,3.14,0,0,0-.19-1.12,2.44,2.44,0,0,0-.55-.89,2.51,2.51,0,0,0-.87-.58,3,3,0,0,0-1.15-.21,3.55,3.55,0,0,0-1.31.25,3.24,3.24,0,0,0-1.06.71,3.32,3.32,0,0,0-.69,1.09,3.57,3.57,0,0,0-.26,1.38,4,4,0,0,0,.24,1.44,2.91,2.91,0,0,0,.65,1.06,2.69,2.69,0,0,0,1,.66,3.73,3.73,0,0,0,1.32.22,3.27,3.27,0,0,0,1.74-.45,2.29,2.29,0,0,0,1-1.33l-.45-.25a2.45,2.45,0,0,1-.68.74,1.73,1.73,0,0,1-1,.26,1.8,1.8,0,0,1-1.34-.55,2.56,2.56,0,0,1-.58-1.74ZM145.07,21a4.33,4.33,0,0,1,.21-1,2.21,2.21,0,0,1,.36-.67,1.11,1.11,0,0,1,.91-.46.82.82,0,0,1,.69.35,1.64,1.64,0,0,1,.26,1,.9.9,0,0,1-.18.62.88.88,0,0,1-.66.2Zm-2.16-2.59h-2.43V19l.85.15L140,23l-1.39-3.81.93-.18v-.59h-3.63V19l.76.15,2.49,6.17a5.76,5.76,0,0,1-.44.83,3.83,3.83,0,0,1-.51.6l-.23-.2a1.35,1.35,0,0,0-.5-.32,1.42,1.42,0,0,0-.45-.08,1.06,1.06,0,0,0-.56.14.83.83,0,0,0-.33.49.64.64,0,0,0,.11.39.86.86,0,0,0,.3.3,1.39,1.39,0,0,0,.43.18,2.76,2.76,0,0,0,.51.05,1.7,1.7,0,0,0,1.41-.68A7.61,7.61,0,0,0,139.93,25l2.13-5.82.85-.14ZM136,23.73l-.07.07a1.88,1.88,0,0,1-.19.2.25.25,0,0,1-.21.08.27.27,0,0,1-.25-.13.68.68,0,0,1-.08-.34V20.87a4.94,4.94,0,0,0-.13-1.25,2.08,2.08,0,0,0-.41-.83,1.65,1.65,0,0,0-.73-.45,3.7,3.7,0,0,0-1.07-.14,3.53,3.53,0,0,0-2,.51A1.81,1.81,0,0,0,130,20a.9.9,0,0,0,.28.49.86.86,0,0,0,1.13-.07,1.3,1.3,0,0,0,.31-.77l.11-.77.21,0h.2a1,1,0,0,1,.89.35,2.14,2.14,0,0,1,.25,1.2v.4l-.62.18c-.2.05-.38.11-.53.16a7.24,7.24,0,0,0-1.24.52,3.64,3.64,0,0,0-.75.55,1.66,1.66,0,0,0-.37.59,2.09,2.09,0,0,0-.1.6,1.46,1.46,0,0,0,.5,1.19,2,2,0,0,0,1.3.4,2.32,2.32,0,0,0,1-.21,4,4,0,0,0,.87-.62,1.1,1.1,0,0,0,.5.55,1.67,1.67,0,0,0,.9.22,1.51,1.51,0,0,0,.85-.22,1.83,1.83,0,0,0,.6-.75Zm-2.61-.1a1.57,1.57,0,0,1-.47.27,1.2,1.2,0,0,1-.42.08,1,1,0,0,1-.74-.28.91.91,0,0,1-.18-.27,1,1,0,0,1-.07-.42,1.36,1.36,0,0,1,.22-.77,1.62,1.62,0,0,1,.81-.57l.38-.14.47-.14Zm-12.11-7.51v.66l1.08.12c0,.56,0,1.11,0,1.67v3.81q0,.82,0,1.65l-1.08.12v.66h3.53a8.08,8.08,0,0,0,2.1-.22,3.49,3.49,0,0,0,1.27-.57,1.71,1.71,0,0,0,.62-.79,2.27,2.27,0,0,0,.17-.89,2.15,2.15,0,0,0-.11-.71,1.64,1.64,0,0,0-.35-.63,2.33,2.33,0,0,0-.64-.48,3.42,3.42,0,0,0-1-.31,2.66,2.66,0,0,0,.74-.31,1.78,1.78,0,0,0,.5-.44,1.42,1.42,0,0,0,.27-.55,2.49,2.49,0,0,0,.08-.61,1.91,1.91,0,0,0-.73-1.58,3.6,3.6,0,0,0-2.3-.6Zm3.72.73a1.79,1.79,0,0,1,1.26.37,1.49,1.49,0,0,1,.39,1.13,1.48,1.48,0,0,1-.44,1.15,2.07,2.07,0,0,1-1.4.39h-.49V18.36c0-.5,0-1,0-1.51Zm-.65,7.23c0-.55,0-1.12,0-1.7V20.59h.53a2.69,2.69,0,0,1,1.7.41,1.61,1.61,0,0,1,.5,1.32,2.68,2.68,0,0,1-.1.73,1.23,1.23,0,0,1-.36.56,1.54,1.54,0,0,1-.7.35,4.52,4.52,0,0,1-1.14.12Z"/><path class="cls-2" d="M122.17,31.53a1.3,1.3,0,0,0-1.33,1.33V46.67A1.3,1.3,0,0,0,122.17,48h53.77a1.3,1.3,0,0,0,1.32-1.33V32.86a1.3,1.3,0,0,0-1.32-1.33Z"/><path class="cls-3" d="M125.41,40.06c0-2.51,1.38-4,3.36-4s3.34,1.53,3.34,4-1.38,4.1-3.34,4.1S125.41,42.58,125.41,40.06Zm5.67,0c0-2-.92-3.15-2.31-3.15s-2.34,1.2-2.34,3.15.92,3.23,2.34,3.23S131.08,42,131.08,40.06Z"/><path class="cls-3" d="M133.65,36.18h1l2.84,4.92.85,1.63h0c0-.79-.13-1.68-.13-2.5v-4h.94V44h-1l-2.84-4.94-.85-1.61h0c0,.79.12,1.62.12,2.45V44h-.95Z"/><path class="cls-3" d="M143.13,40.17c0-2.58,1.71-4.09,3.68-4.09a3.28,3.28,0,0,1,2.34,1l-.93,1.12a2,2,0,0,0-1.38-.62c-1.06,0-1.91.94-1.91,2.51s.74,2.53,1.89,2.53a2.07,2.07,0,0,0,1.52-.73l.93,1.1a3.19,3.19,0,0,1-2.52,1.15C144.78,44.16,143.13,42.79,143.13,40.17Z"/><path class="cls-3" d="M150.39,36.22h1.76v6.32h3.08V44h-4.84Z"/><path class="cls-3" d="M156.43,36.22h1.75V44h-1.75Z"/><path class="cls-3" d="M159.63,40.17c0-2.58,1.71-4.09,3.68-4.09a3.28,3.28,0,0,1,2.34,1l-.93,1.12a2,2,0,0,0-1.38-.62c-1.06,0-1.91.94-1.91,2.51s.74,2.53,1.89,2.53a2.07,2.07,0,0,0,1.52-.73l.93,1.1a3.17,3.17,0,0,1-2.52,1.15C161.28,44.16,159.63,42.79,159.63,40.17Z"/><path class="cls-3" d="M166.89,36.22h1.76v3.2h0l2.32-3.2H173l-2.35,3.11L173.38,44h-1.92l-1.9-3.29-.91,1.2V44h-1.76Z"/></svg>