<svg id="Ebene_1" data-name="Ebene 1" xmlns="http://www.w3.org/2000/svg" viewBox="0 0 394 48" preserveAspectRatio="xMinYMid"><defs><style>.cls-1{fill:#b2ddf1;}</style></defs><title>bv_logo_0</title><path class="cls-1" d="M55.7,0h2.8V48H55.7ZM69,45.6H81.5c6.6,0,10.9,0,13-.9,4.6-1.7,7.2-5.8,7.2-11,0-5.9-3.4-10.4-8.9-11.5a10,10,0,0,0,6.8-9.7A10.54,10.54,0,0,0,94.1,3c-2.6-1.5-5.8-1.8-10.2-1.8H69ZM83.2,4.9c8.1,0,12.1,1.5,12.1,8,0,6.3-3.9,8-12.5,8H73.2V4.9Zm-10,37.2V24.4H85.6c7.8,0,11.7,3.1,11.7,9.1,0,6.7-3.8,8.6-11.9,8.6Zm34-18.7c0,14.7,8.1,23.4,20.6,23.4,12.7,0,20.8-8.7,20.8-23.4S140.4,0,127.8,0,107.2,8.8,107.2,23.4Zm4.1,0c0-12.4,6.8-19.9,16.5-19.9,10,0,16.6,7.4,16.6,19.9s-6.6,19.9-16.6,19.9S111.3,35.9,111.3,23.4Zm42,0c0,14.7,8.1,23.4,20.6,23.4s20.8-8.7,20.8-23.4S186.5,0,173.9,0,153.3,8.8,153.3,23.4Zm4.2,0c0-12.4,6.8-19.9,16.4-19.9,9.9,0,16.6,7.4,16.6,19.9s-6.6,19.9-16.6,19.9S157.5,35.9,157.5,23.4Zm43.8,22.2h4.1V25.7h13.2c7.6,0,8.7,1.9,9.3,9.5l.6,6c.2,2.3.4,3.8.9,4.5H234V45c-.7-.5-1.1-1.9-1.3-4.1l-.6-6.6c-.5-5.6-1-8.7-5.6-10.2,4.7-1.7,7.1-5.6,7.1-11,0-4.5-1.9-8.2-5.5-10-3.2-1.9-7-1.9-11.7-1.9H201.3V45.6Zm4.1-23.4V4.9h11.7c3.8,0,6.6,0,8.9,1.5a8,8,0,0,1,3.4,6.7c0,6.5-3.8,9.1-11.9,9.1Zm35.4,23.4h12.4c6.6,0,10.9,0,13-.9,4.5-1.7,7.2-5.8,7.2-11,0-5.9-3.4-10.4-8.9-11.5a10,10,0,0,0,6.8-9.7A10.54,10.54,0,0,0,265.8,3c-2.6-1.5-5.8-1.9-10.2-1.9H240.7l.1,44.5ZM254.9,4.9c8.1,0,12.1,1.5,12.1,8,0,6.3-4,8-12.5,8h-9.6V4.9Zm-10,37.2V24.4h12.4c7.8,0,11.7,3.1,11.7,9.1,0,6.7-3.8,8.6-11.9,8.6Zm34.7,3.5H310V42.1H283.8V24.6H307V21.1H283.8V4.9h25.5V1.2H279.6Zm36.9,0h4.2V25.7h13.2c7.6,0,8.7,1.9,9.3,9.5l.5,6c.2,2.3.4,3.8,1,4.5h4.6V45c-.8-.5-1.2-1.9-1.4-4.1l-.6-6.7c-.5-5.6-.9-8.7-5.6-10.2,4.7-1.7,7.2-5.6,7.2-11,0-4.5-1.9-8.2-5.5-10-3.2-1.9-7-1.9-11.7-1.9H316.6C316.5,1.1,316.5,45.6,316.5,45.6Zm4.1-23.4V4.9h11.7c3.8,0,6.6,0,8.9,1.5a8,8,0,0,1,3.4,6.7c0,6.5-3.8,9.1-11.9,9.1Zm69.9,23.4h3.4V22.9H375v3.5h14.9v.2c0,10.6-5.9,16.7-15.9,16.7-9.6,0-15.7-7.6-15.7-20.1,0-12.8,5.9-19.7,16.3-19.7,7.7,0,13.2,4.1,14.3,10.6h4.4C392,5.2,385.2,0,374.6,0,362.1,0,354,8.5,354,23.2c0,14.9,7.8,23.6,20.2,23.6,7.4,0,13-3.3,15.9-9.1ZM23.9.2a23.81,23.81,0,1,1-.18,0ZM36.7,15h7.7A22.36,22.36,0,0,0,3.5,15h9v1.5H11.1c-.7.1-1.3-.1-.2,1.6l4.8,7.3h.4a1.33,1.33,0,0,0,1.5-1V8.7A9.65,9.65,0,0,0,17.5,7a1.39,1.39,0,0,0-1.1-.6H15V5h9.3c1.9,0,4.2-.1,6.2,1.4a5,5,0,0,1,1.9,5.2,5.28,5.28,0,0,1-3,4.2,7.82,7.82,0,0,1,2.1,1.5,5.6,5.6,0,0,1,1.7,3.9c0,2.1-.9,4.1-2.2,4.9s-2.9,1.1-7.6,1.1H16.7l.4.7L25.2,40l3.6-5.2L35,25.5l3.5-5.6A11.7,11.7,0,0,0,40,17.2c.2-1-.5-.7-3.3-.7Zm7.8,1.5c-.6,0-1.2,1-1.5,1.6l-18.9,28-4.8-7.3-5.5-8.3A148.61,148.61,0,0,0,5,17.1a1.36,1.36,0,0,0-.8-.5,4.07,4.07,0,0,0-1.1-.1H2.9A22.36,22.36,0,0,0,45,31.6,21.89,21.89,0,0,0,46.3,24,21.3,21.3,0,0,0,45,16.5v-.1Zm-22.8,0v8.9h3.1c2.3-.1,3.6-1,4.2-3.1a5.27,5.27,0,0,0-.3-3.5A4,4,0,0,0,27.1,17a8.5,8.5,0,0,0-2.7-.4Zm0-10.1V15h1.7a7.94,7.94,0,0,0,2.6-.4,4.7,4.7,0,0,0,1.9-1.8,3.64,3.64,0,0,0,.6-2,5.17,5.17,0,0,0-1.2-3.1,3.85,3.85,0,0,0-2.6-1.3Z" transform="translate(0)"/></svg>