<svg id="Ebene_1" data-name="Ebene 1" xmlns="http://www.w3.org/2000/svg" xmlns:xlink="http://www.w3.org/1999/xlink" viewBox="0 0 57 48"><defs><style>.cls-1{fill:none;}.cls-2{clip-path:url(#clip-path);}.cls-3{fill:#fff;}</style><clipPath id="clip-path"><rect class="cls-1" width="57" height="48"/></clipPath></defs><title>scroll_navigator</title><g class="cls-2"><path class="cls-3" d="M57,2.4A2.4,2.4,0,0,0,54.63,0H2.37A2.4,2.4,0,0,0,0,2.4V7.2A2.4,2.4,0,0,0,2.37,9.6H54.63A2.4,2.4,0,0,0,57,7.2Zm0,19.2a2.4,2.4,0,0,0-2.37-2.4H2.37A2.4,2.4,0,0,0,0,21.6v4.8a2.4,2.4,0,0,0,2.37,2.4H54.63A2.4,2.4,0,0,0,57,26.4Zm0,19.2a2.4,2.4,0,0,0-2.37-2.4H2.37A2.4,2.4,0,0,0,0,40.8v4.8A2.4,2.4,0,0,0,2.37,48H54.63A2.4,2.4,0,0,0,57,45.6Z"/></g></svg>